# Blender v2.79 (sub 0) OBJ File: ''
# www.blender.org
mtllib ramp.mtl
o Cube_Cube.001
v -1.000000 -1.000000 7.614408
v -1.000000 1.000000 7.614408
v -1.000000 -1.000000 -1.000000
v -1.000000 1.000000 -1.000000
v 1.000000 -1.000000 7.614408
v 1.000000 1.000000 7.614408
v 1.000000 -1.000000 -1.000000
v 1.000000 1.000000 -1.000000
v 10.725069 3.414093 7.614408
v 10.725069 5.414093 7.614408
v 10.725069 3.414093 -1.000000
v 10.725069 5.414093 -1.000000
v 12.613491 3.414093 7.614408
v 12.613491 5.414093 7.614408
v 12.613491 3.414093 -1.000000
v 12.613491 5.414093 -1.000000
vn -1.0000 0.0000 0.0000
vn 0.0000 0.0000 -1.0000
vn 0.0000 0.0000 1.0000
vn 0.0000 -1.0000 0.0000
vn 0.0000 1.0000 0.0000
vn 0.4133 -0.9106 0.0000
vn -0.4133 0.9106 0.0000
vn 1.0000 0.0000 0.0000
usemtl None
s off
f 2//1 3//1 1//1
f 4//2 7//2 3//2
f 6//3 9//3 10//3
f 6//3 1//3 5//3
f 7//4 1//4 3//4
f 4//5 6//5 8//5
f 10//5 16//5 12//5
f 7//6 9//6 5//6
f 6//7 12//7 8//7
f 8//2 11//2 7//2
f 16//8 13//8 15//8
f 12//2 15//2 11//2
f 9//3 14//3 10//3
f 11//4 13//4 9//4
f 2//1 4//1 3//1
f 4//2 8//2 7//2
f 6//3 5//3 9//3
f 6//3 2//3 1//3
f 7//4 5//4 1//4
f 4//5 2//5 6//5
f 10//5 14//5 16//5
f 7//6 11//6 9//6
f 6//7 10//7 12//7
f 8//2 12//2 11//2
f 16//8 14//8 13//8
f 12//2 16//2 15//2
f 9//3 13//3 14//3
f 11//4 15//4 13//4
